<svg id="Layer_1" data-name="Layer 1" xmlns="http://www.w3.org/2000/svg" width="334.6532" height="37.4377" viewBox="0 0 334.6532 37.4377">
  <defs>
    <style>
      .cls-1, .cls-2 {
        fill: #231f20;
      }

      .cls-1 {
        fill-rule: evenodd;
      }
    </style>
  </defs>
  <path class="cls-1" d="M5.18,35.24h-.824V26.9445h.912a11.5883,11.5883,0,0,0,3.552,5.52A8.3319,8.3319,0,0,0,14.2916,34.48a8.1933,8.1933,0,0,0,5.7276-2.1277A6.7519,6.7519,0,0,0,22.355,27.16q0-3.5988-7.0793-5.8229c-.3684-.1045-.6562-.1925-.84-.2559q-6.048-1.92-8.0395-3.944a7.501,7.501,0,0,1-1.9919-5.4959A8.3811,8.3811,0,0,1,6.9561,5.2982,9.2156,9.2156,0,0,1,13.6113,2.85a10.442,10.442,0,0,1,5.696,1.68,2.0367,2.0367,0,0,0,.5838.32.7387.7387,0,0,0,.2477-.08.7723.7723,0,0,0,.2-.168l.912-1.1277h1.0079v7.1992h-.8642A10.6,10.6,0,0,0,18.171,5.6981,7.9126,7.9126,0,0,0,13.1,4.05,6.757,6.757,0,0,0,8.5239,5.658,4.9947,4.9947,0,0,0,6.66,9.5775a3.9563,3.9563,0,0,0,1.4323,3.1442,12.1317,12.1317,0,0,0,4.6792,2.08c.3123.08.7925.2,1.4324.3757q5.4353,1.4517,7.1909,2.7841a7.8472,7.8472,0,0,1,2.3594,2.976,9.7214,9.7214,0,0,1,.8081,4.0316,10.5868,10.5868,0,0,1-2.8957,7.8075A10.54,10.54,0,0,1,13.8516,35.68a11.1831,11.1831,0,0,1-6.304-1.8957,2.1141,2.1141,0,0,0-.5354-.3037.3151.3151,0,0,0-.1765.0643,1.4429,1.4429,0,0,0-.2235.1918Z" transform="translate(-4.3559 -0.5)"/>
  <path class="cls-1" d="M45.4487,10.8451c1.0165-1.5261,4.364-6.1006,10.3794-6.1006a11.745,11.745,0,0,1,8.643,3.94,14.3139,14.3139,0,0,1,4.3207,10.5984,14.0885,14.0885,0,0,1-2.6691,8.5229c-1.0164,1.525-4.4056,6.0162-10.3365,6.0162a11.64,11.64,0,0,1-9.0241-4.4065c-1.61-1.8213-3.94-4.2436-3.94-10.1326a14.4409,14.4409,0,0,1,2.6271-8.4374ZM55.8281,32.678h0a6.6861,6.6861,0,0,0,6.7783-5.38,38.1722,38.1722,0,0,0,.5513-7.5915,60.9311,60.9311,0,0,0-.2544-6.2346c-.17-2.0758-.5085-4.0669-2.0755-5.635a7.3768,7.3768,0,0,0-10.253.2545,6.456,6.456,0,0,0-1.2709,2.161c-.6358,1.8214-.8049,4.3705-.8049,9.1578a49.7722,49.7722,0,0,0,.2963,6.6588,6.8556,6.8556,0,0,0,4.4482,6.1425A7.34,7.34,0,0,0,55.8281,32.678Z" transform="translate(-4.3559 -0.5)"/>
  <polygon class="cls-1" points="94.078 35.521 82.98 3.512 80.045 3.512 80.045 2.595 92.931 2.595 92.931 3.512 88.482 3.512 96.553 27.312 104.212 3.512 99.534 3.512 99.534 2.595 108.66 2.595 108.66 3.512 105.496 3.512 95.132 35.521 94.078 35.521"/>
  <polygon class="cls-1" points="132.37 34.008 136.405 34.008 136.405 34.971 123.061 34.971 123.061 34.008 127.05 34.008 127.05 3.512 123.061 3.512 123.061 2.595 136.405 2.595 136.405 3.512 132.37 3.512 132.37 34.008"/>
  <path class="cls-1" d="M157.913,35.4706v-.963h4.0813V4.0122h-3.99V3.0946h23.2041l.3674,8.8506h-.6876c-.3215-.8707-.46-1.7426-.6886-2.5675A8.8579,8.8579,0,0,0,178.1822,5.8a5.0718,5.0718,0,0,0-1.2842-.917c-1.5135-.78-2.981-.8258-6.237-.871h-3.6687V18.5948h1.5135c.4584,0,.9176-.0461,1.4214-.0461.3672-.046,2.7056,0,3.6227-1.8337a5.8743,5.8743,0,0,0,.3671-1.2384c.1381-.9628.1833-1.9259.2293-2.8438h.78V25.9321h-.6877a21.144,21.144,0,0,0-.2293-2.7516,4.5124,4.5124,0,0,0-1.2842-2.66c-1.1921-.9631-2.8889-.9631-4.2651-.9631h-1.4675v14.95h5.2743a29.6678,29.6678,0,0,0,4.0349-.1382,5.1166,5.1166,0,0,0,3.6226-2.7507,24.9338,24.9338,0,0,0,2.3393-6.237h.5956l-.8709,10.0889Z" transform="translate(-4.3559 -0.5)"/>
  <path class="cls-1" d="M213.447,34.5076h4.4024v.963H203.5423v-.963h4.6317V4.0122h-2.7971a5.6841,5.6841,0,0,0-3.7605,1.1924C199.92,6.58,198.9105,9.561,198.8187,9.8821c-.3665,1.1-.55,2.2924-.8709,3.3936h-.8258l.4132-10.1811h26.2762l.7337,10.1811-.7337-.0461c-.1833-.4586-.3211-.917-.4584-1.3756a17.5839,17.5839,0,0,0-2.1551-5.0907c-1.7429-2.66-3.6235-2.7971-6.5576-2.7511H213.447Z" transform="translate(-4.3559 -0.5)"/>
  <polygon class="cls-1" points="243.899 34.008 247.935 34.008 247.935 34.971 234.59 34.971 234.59 34.008 238.58 34.008 238.58 3.512 234.59 3.512 234.59 2.595 247.935 2.595 247.935 3.512 243.899 3.512 243.899 34.008"/>
  <path class="cls-1" d="M293.8385,35.4706h-.7337l-1.6968-2.2933a9.6331,9.6331,0,0,1-2.4763,1.56,11.8146,11.8146,0,0,1-5.5027,1.2842c-6.1909,0-9.8136-4.7235-10.8227-6.237a16.8752,16.8752,0,0,1-3.027-10.1342,18.8119,18.8119,0,0,1,3.21-10.8687,14.09,14.09,0,0,1,11.189-6.2364,9.8371,9.8371,0,0,1,2.4766.2753,14.4949,14.4949,0,0,1,5.09,2.4306l1.5135-2.1561h.7338l.0921,8.4382h-1.0091c-1.6508-6.5123-5.962-7.8417-8.8509-7.8417a8.1688,8.1688,0,0,0-4.998,1.6508,7.3619,7.3619,0,0,0-1.4214,1.65c-1.33,2.2012-1.4674,4.5405-1.6516,9.5385,0,1.3763-.0452,2.7517-.0452,4.1279,0,1.2836,0,2.5218.0452,3.8059a18.7186,18.7186,0,0,0,.0921,2.2933c.2753,3.9438,1.7428,5.8238,3.2563,6.8326a7.7268,7.7268,0,0,0,4.4484,1.2836,8.9844,8.9844,0,0,0,7.75-4.6768,26.2471,26.2471,0,0,0,1.7419-3.8526h.7795Z" transform="translate(-4.3559 -0.5)"/>
  <polygon class="cls-1" points="309.661 34.008 313.88 34.008 313.88 34.971 305.213 34.971 305.213 34.008 308.331 34.008 319.245 2.503 320.712 2.503 331.214 34.008 334.607 34.008 334.653 34.971 321.4 34.971 321.4 34.008 325.665 34.008 317.686 10.207 309.661 34.008"/>
  <rect class="cls-2" x="50.6916" y="32.5183" width="1.4114" height="4.9195"/>
  <rect class="cls-2" x="50.6916" width="1.4114" height="4.9195"/>
</svg>
